<svg
   xmlns="http://www.w3.org/2000/svg"
   width="535"
   height="118">
   <g
      transform="translate(-84.09955,-505.93077)"
      style="fill:#fbd257;stroke:#3a2911;stroke-width:3">
    <path
       id="crown"
       d="m 211.87718,528.41826 c -0.36078,2.5565 -1.29834,5.82408 -1.77032,9.1685 -0.39063,2.76804 -0.0797,5.71886 -0.52438,8.86991 -0.40373,2.86072 -0.91052,6.28728 -1.34304,9.35208 -0.41183,2.91816 -0.7269,5.71767 -1.15157,8.72684 -0.4183,2.96405 -1.25116,5.46581 -1.66946,8.42987 -0.4247,3.00933 -0.99786,6.73381 -1.40971,9.65214 -0.43252,3.06473 -1.06168,5.73774 -1.4654,8.59844 -0.44473,3.15133 -0.29614,6.46388 -0.68683,9.2322 -0.47206,3.34497 -1.22164,6.3758 -1.58248,8.9327 -0.77938,5.52258 -0.72948,8.48123 -0.72948,8.48123 0,0 -3.52002,0.0321 -9.18857,0.0321 -2.64453,0 -6.49199,0.21883 -9.92974,0.21883 -2.86469,0 -5.32011,-0.44635 -8.55721,-0.44635 -2.96292,0 -6.10357,0.57855 -9.24838,0.57855 -3.02722,0 -6.01628,-0.52948 -9.09895,-0.52948 -3.08244,0 -6.81202,-0.0114 -9.839,-0.0114 -3.14519,0 -6.23947,0.0132 -9.2027,0.0132 -3.23683,0 -5.86975,0.5831 -8.73419,0.5831 -3.43758,0 -7.06749,-0.41101 -9.71188,-0.41101 -5.66831,0 -8.68991,0.41633 -8.68991,0.41633 0,0 -0.70399,-4.22378 -1.76167,-9.85773 -0.48964,-2.60816 -0.83865,-5.561 -1.47919,-8.97298 -0.53016,-2.82396 -1.09674,-5.35402 -1.70025,-8.56873 -0.5479,-2.91852 -1.09632,-5.99867 -1.68331,-9.12537 -0.5589,-2.97711 -1.75436,-6.00687 -2.33069,-9.07684 -0.56769,-3.02392 -1.11643,-6.58769 -1.68412,-9.61163 -0.57637,-3.07012 -0.4775,-5.89014 -1.03645,-8.86742 -0.58697,-3.12665 -1.8772,-6.34416 -2.4251,-9.26265 -0.60356,-3.215 -1.53975,-6.30146 -2.06995,-9.1257 -0.64065,-3.41255 -0.68609,-6.14282 -1.17581,-8.75136 -1.05772,-5.63415 -1.39789,-9.55803 -1.39789,-9.55803 0,0 2.5476,2.97562 6.48224,7.11544 1.94044,2.04163 4.52043,4.46468 6.91799,6.98728 2.12046,2.23104 3.64704,4.51042 5.88172,6.86163 2.2347,2.35124 4.41713,4.9356 6.53762,7.16667 2.39785,2.52289 5.29435,5.15515 7.23496,7.19696 3.93427,4.13945 6.30388,6.24441 6.30388,6.24441 0,0 1.6824,-2.16426 3.94481,-6.50122 1.11575,-2.13885 2.54098,-5.28971 3.91957,-7.93242 1.21927,-2.33729 2.63557,-4.56415 3.92051,-7.02732 1.28495,-2.4632 2.30621,-5.23779 3.52549,-7.5751 1.37876,-2.64302 2.27866,-5.03484 3.39452,-7.17387 2.2622,-4.33657 3.93953,-6.60825 3.93953,-6.60825 0,0 2.06667,2.54223 5.08775,7.19955 1.534,2.36485 3.40076,5.825 5.24063,8.66136 1.69263,2.60939 3.27859,4.621 4.97122,7.23036 1.83958,2.83594 3.6281,6.19149 5.16191,8.55603 3.02119,4.6575 5.69672,7.80024 5.69672,7.80024 0,0 1.7732,-2.41307 5.41274,-5.96149 1.79491,-1.74998 3.83293,-3.95352 6.05067,-6.11574 1.96142,-1.91232 4.07529,-4.12295 6.14236,-6.13828 2.0671,-2.01534 4.41213,-4.23104 6.37358,-6.14338 2.218,-2.16248 4.75347,-3.87202 6.54852,-5.62214 3.63921,-3.5481 5.4077,-5.74813 5.4077,-5.74813 0,0 -0.0396,2.89566 -0.81901,8.41805 z"
        />
    <g>
      <path
         id="N"
         d="m 308.40153,619.72677 c 3.31199,0 4.32,-0.576 4.752,-0.72 l 0,-2.88 c 0,-3.88799 -0.144,-7.632 -0.144,-11.52 0,-5.32799 0.144,-10.368 0.144,-15.984 0,-8.20799 0,-16.56 -0.144,-24.624 l 0,-46.368 c -2.736,-0.57599 -5.90401,-0.864 -9.504,-0.864 -3.6,0 -7.05601,0.28801 -10.368,0.864 -0.144,4.752 -0.288,8.78401 -0.288,12.816 0,6.912 0.432,13.24801 0.432,20.88 0,3.312 -0.432,7.48801 -1.008,7.92 -0.432,0 -10.944,-21.312 -12.096,-24.048 -3.456,-8.06399 -4.752,-9.072 -7.488,-16.128 0,-0.86399 -9.504,-1.44 -11.952,-1.44 -2.304,0 -4.608,0.14401 -6.48,0.576 -1.008,12.23999 -1.296,25.34402 -1.296,38.592 0,17.99999 0.432,33.69602 0.432,51.984 l 0,10.08 c 4.46399,0 9.216,0.864 13.824,0.864 2.16,0 4.176,-0.144 6.336,-0.72 -0.144,-3.31199 -0.144,-7.488 -0.144,-11.952 0,-16.12798 0.432,-36.576 1.008,-36.576 0.432,0 1.152,2.16001 1.872,4.32 l 1.44,4.32 c 4.46399,12.23999 11.088,25.63202 17.424,39.888 3.88799,0 9.36,0.72 13.248,0.72 z"
          />
      <path
         id="h"
         d="m 341.58903,554.78277 c 0,-2.30399 0.432,-37.152 -0.144,-40.032 0,-1.29599 -7.056,0.144 -8.64,0.144 -4.608,0.432 -5.47201,0.432 -10.08,0 -0.576,25.34398 0,80.92803 0,104.544 9.21599,-0.71999 11.232,1.008 17.856,-0.864 l 0,-0.576 c 1.584,-12.67198 -0.576,-25.34401 0.144,-38.592 0.72,-10.36798 10.512,-9.35999 13.68,-7.776 0.144,0.144 0.432,0.14401 0.576,0.288 3.024,2.304 3.168,9.21601 3.6,13.968 0.72,10.36799 -0.144,24.62401 0.576,33.408 6.76799,0 11.232,0.432 18,-0.576 -1.152,-19.87198 3.02399,-61.056 -3.024,-66.528 -7.91999,-6.76799 -21.02401,-5.32799 -28.944,0.432 -1.008,0.72 -2.592,1.58401 -3.6,2.16 z"
          />
      <path
         id="a"
         d="m 444.88203,547.29477 c -6.192,-0.43199 -10.80001,-0.576 -14.112,-0.72 -1.152,0 -6.912,-0.28799 -6.912,0.144 0,2.304 -0.72,4.32001 -0.576,7.344 -2.736,-6.62399 -7.77601,-6.624 -14.688,-6.624 -13.53599,0.432 -24.192,14.11202 -24.192,33.264 0,15.40799 6.33601,38.592 21.168,38.592 6.76799,0 14.4,-3.744 19.008,-8.352 0,1.872 -0.576,2.88001 -0.576,5.04 0,1.584 0.432,2.73601 1.728,3.168 2.16,0 4.032,-0.432 6.192,-0.432 3.024,0 6.336,0.432 9.36,0.432 l 1.728,0 c 2.304,-0.43199 1.872,-3.456 1.872,-5.904 1.296,-20.59197 -0.288,-40.32002 0.288,-61.056 l 0,-1.44 c 0,-1.15199 -0.144,-2.304 -0.288,-3.456 z m -41.904,28.656 c 1.008,-4.75199 5.47201,-9.216 13.392,-9.216 7.91999,0 7.488,1.58402 7.488,14.976 0,10.79999 0.57599,17.424 -8.928,17.424 -8.06399,0 -12.816,-6.912 -12.816,-15.552 0,-2.44799 0.144,-5.184 0.864,-7.632 z m -4.896,-55.44 0.144,0.144 c 2.736,2.736 12.672,10.94401 14.544,13.824 6.04799,0.72 16.56,0.144 19.296,-0.576 -6.624,-6.19199 -17.28001,-18.144 -24.048,-23.472 l -9.936,10.08 z"
          />
      <path
         id="E"
         d="m 549.43728,599.42277 c -13.10399,0.432 -25.05601,-0.72 -37.728,-0.72 l -0.144,-0.144 c -0.432,-4.60799 -1.008,-12.384 0,-18 2.016,-1.58399 11.52,0 17.424,-1.584 -0.144,-7.05599 0.72,-13.536 -0.288,-20.016 l 0,-0.144 c -5.904,-0.14399 -11.95201,0 -17.712,-0.432 l -0.144,-0.144 c -1.296,-5.18399 0,-11.232 -0.144,-16.848 l 0.144,-0.144 0.432,0 c 12.67199,-1.15199 25.48801,1.008 37.728,-1.728 l 0,-0.144 c 0,-6.76799 1.008,-13.68 0,-20.448 0,-0.86399 -37.29602,-0.28799 -59.616,0.864 -1.872,32.97597 -0.144,65.08804 -0.144,98.496 18.57598,1.584 39.45602,0.14401 59.04,0.288 1.584,-5.75999 1.584,-12.672 1.152,-18.864 l 0,-0.288 z"
          />
      <path
         id="d"
         d="m 595.40703,519.35877 c -0.576,11.37599 -1.008,4.17603 -0.432,31.248 -0.72,-3.45599 -17.28001,-5.75999 -27.648,-1.872 -8.49599,3.024 -11.664,15.84002 -11.664,29.232 0.432,19.29599 2.44802,39.02401 24.192,40.608 5.32799,0.72 10.512,-0.432 13.392,-6.192 0.576,-1.15199 1.008,-0.43199 1.44,0.576 0,2.16 0.144,2.88001 0.144,4.752 0,0.432 0,0.86401 0.144,1.008 5.75999,0.72 13.536,0.144 19.44,0.144 0.72,-27.64797 -0.864,-59.61603 -0.864,-91.728 l 0,-9.504 c -6.336,-1.15199 -18.144,-0.28799 -18.144,0.144 l 0,1.584 z m -22.32,54.288 c 1.008,-6.76799 5.76001,-10.224 13.68,-10.224 8.20799,0 8.784,1.72802 8.784,16.56 0,12.09599 -0.57601,20.88 -10.368,20.88 -8.20799,0 -13.104,-9.216 -13.104,-18.864 0,-2.73599 0,-5.616 1.008,-8.352 z"
          />
    </g>
  </g>
</svg>
