<svg xmlns="http://www.w3.org/2000/svg" width="365" height="119">
  <!--
    The font is Londrina Sketch by Marcelo Magalhães:
    http://www.google.com/fonts/specimen/Londrina+Sketch
  -->
  <g transform="translate(-189.54725,-465.7927)">
    <g id="outer" style="fill:#3a2911">
      <path id="outer-N" d="m 234.97725,581.54908 -0.576,-0.864 c -2.97605,-2.976 -4.94405,-6 -5.904,-9.072 -0.19204,-0.76799 -0.72004,-2.54399 -1.584,-5.328 -0.76804,-2.87999 -1.53604,-5.51998 -2.304,-7.92 l -1.44,-4.032 c -4e-5,0.096 -0.14404,0.14402 -0.432,0.144 -0.19204,2e-5 -0.57604,-1.05598 -1.152,-3.168 l -0.144,-2.016 -6.336,-12.672 c -0.28803,0.57604 -0.43203,1.34404 -0.432,2.304 l 0,1.584 0.576,9.936 0,8.208 c -3e-5,0.96002 -0.048,1.53602 -0.144,1.728 0.096,0.096 0.14397,0.28802 0.144,0.576 l -0.864,6.48 c -3e-5,1.24801 0.14397,3.31201 0.432,6.192 -0.28803,1.152 -0.43203,1.92 -0.432,2.304 l 0.432,2.448 0,1.152 c -0.096,0.288 -0.19203,0.768 -0.288,1.44 l -0.432,-0.864 c -0.57603,0.576 -1.10403,0.864 -1.584,0.864 l -1.152,-0.576 c -0.76803,0 -1.72803,0.192 -2.88,0.576 -1.82402,-0.288 -3.84002,-0.432 -6.048,-0.432 -2.20802,0 -3.55201,-0.048 -4.032,-0.144 -0.38401,-0.096 -0.91201,-0.144 -1.584,-0.144 -0.67201,0 -1.20001,0.096 -1.584,0.288 l -1.728,0.72 -1.008,-0.72 c -1e-5,0.096 -0.14401,0.144 -0.432,0.144 -0.19201,0 -0.24001,-0.24 -0.144,-0.72 0.19199,-0.576 0.28799,-1.632 0.288,-3.168 l -0.432,-7.92 0.288,-4.32 c -1e-5,-2.01599 -0.19201,-3.40798 -0.576,-4.176 l 0.144,-13.824 c 0.38399,-22.27195 0.52799,-35.23193 0.432,-38.88 -1e-5,-3.74393 -1e-5,-6.04792 0,-6.912 l 0,-1.44 0.576,-13.968 0,-3.744 c -1e-5,-2.1119 1.10399,-3.1679 3.312,-3.168 l 4.32,0.432 8.64,-1.296 c 1.53597,1e-4 3.16797,1.4401 4.896,4.32 1.82397,2.88009 2.83197,4.80009 3.024,5.76 0.28797,0.96009 0.67197,1.87209 1.152,2.736 0.57597,0.76809 1.24797,1.68009 2.016,2.736 0.86396,1.05608 1.48796,1.87208 1.872,2.448 0.38396,0.57608 1.00796,2.40008 1.872,5.472 0.86396,3.07207 1.48796,4.80007 1.872,5.184 0.19196,0.57607 0.71996,1.48807 1.584,2.736 0.95996,1.24807 1.43996,2.30407 1.44,3.168 l 0.576,0.576 c -0.096,6e-5 -0.19204,0.0481 -0.288,0.144 l 3.168,4.464 c 0.28795,-0.0959 0.43195,-0.28794 0.432,-0.576 l -0.288,-1.296 c -5e-5,-0.28794 0.0479,-0.47994 0.144,-0.576 l 0.288,0.288 c -5e-5,-1.05594 -0.43205,-5.03993 -1.296,-11.952 l 0.288,0.432 -0.144,-4.896 c -0.0961,-3.26392 -0.14405,-6.52792 -0.144,-9.792 l -0.144,-4.752 c -0.19205,-0.57591 -0.28805,-1.00791 -0.288,-1.296 0.19195,-0.28791 0.28795,-1.0559 0.288,-2.304 0.0959,-1.2479 0.33595,-2.1119 0.72,-2.592 1.34395,0.1921 2.25595,0.2881 2.736,0.288 l 15.12,-0.72 c 0.19193,1e-4 0.52793,0.0481 1.008,0.144 l 0.144,-0.144 c 0.38393,1e-4 1.39193,0.2401 3.024,0.72 l -0.144,0.432 c -0.0961,1e-4 -0.24007,0.1441 -0.432,0.432 -0.19207,0.1921 -0.28807,0.3361 -0.288,0.432 l 0.72,1.296 c -7e-5,0.0961 -0.0481,0.1921 -0.144,0.288 0.38393,3.45609 0.57593,7.29609 0.576,11.52 l -0.72,25.344 0.288,32.112 c -7e-5,7.10402 -0.14407,12.52801 -0.432,16.272 l 0.72,12.528 c -0.38407,0.288 -1.82407,0.864 -4.32,1.728 l -1.872,0 -7.2,-0.144 c -1.24806,0 -2.92805,0.096 -5.04,0.288 l -0.72,0.72 z"/>
      <path id="outer-h" d="m 320.36925,530.14108 -0.144,7.2 c -6e-5,3.84004 -0.33606,9.88803 -1.008,18.144 -0.67206,8.25601 -1.00806,14.06401 -1.008,17.424 l 0,2.304 c -6e-5,0.192 0.0959,0.96 0.288,2.304 0.0959,0.096 0.28794,0.144 0.576,0.144 0.57594,0.192 0.86394,0.528 0.864,1.008 -3.36006,1.536 -7.10406,2.544 -11.232,3.024 -4.12805,0.48 -6.72005,0.86399 -7.776,1.152 l 0,-0.288 c -4e-5,-0.768 0.76795,-1.248 2.304,-1.44 1.63195,-0.192 2.59195,-0.432 2.88,-0.72 -0.38405,-0.384 -1.20005,-0.576 -2.448,-0.576 -1.15205,0 -2.11205,0.24 -2.88,0.72 -0.38404,-0.384 -0.57604,-0.768 -0.576,-1.152 -4e-5,-0.384 0.19196,-0.912 0.576,-1.584 0.38396,-2.976 0.57595,-6.76799 0.576,-11.376 -5e-5,-4.70398 -0.19204,-8.68798 -0.576,-11.952 -0.38404,-3.26397 -0.67204,-5.75997 -0.864,-7.488 -0.19204,-1.72797 -0.38404,-2.97597 -0.576,-3.744 -0.096,-0.86397 -0.28804,-2.01596 -0.576,-3.456 -0.28804,-1.53596 -0.67204,-2.63996 -1.152,-3.312 -0.38404,-0.76796 -0.86404,-1.58396 -1.44,-2.448 -0.57604,-0.86396 -1.29604,-1.48796 -2.16,-1.872 -0.86404,-0.38395 -1.87204,-0.57595 -3.024,-0.576 -1.15203,5e-5 -2.16003,0.48005 -3.024,1.44 -0.86403,0.96004 -1.53603,2.40004 -2.016,4.32 -0.48003,1.92004 -0.91203,3.79204 -1.296,5.616 -0.28803,1.72803 -0.48003,4.08003 -0.576,7.056 -0.19203,5.76002 -0.28803,10.22402 -0.288,13.392 l 0.864,8.496 -0.576,3.744 c -3e-5,0.384 0.14397,0.816 0.432,1.296 -0.096,0.192 -0.28803,0.528 -0.576,1.008 -0.19203,0.384 -0.33603,0.72 -0.432,1.008 -0.38403,0.768 -1.00803,1.152 -1.872,1.152 l -10.224,-0.576 -2.448,0 c -3.07201,0 -4.60801,-2.016 -4.608,-6.048 l 0.288,-11.952 -0.144,-6.192 0,-3.888 -0.288,-8.784 c -10e-6,-1.91996 0.14399,-5.61596 0.432,-11.088 0.28799,-5.56795 0.43199,-11.71194 0.432,-18.432 l 0.72,-15.696 c -10e-6,-2.01592 -0.38401,-6.95991 -1.152,-14.832 -0.38401,-1.1519 -0.57601,-2.4479 -0.576,-3.888 -10e-6,-1.4399 0.76799,-2.7359 2.304,-3.888 0.86399,0.4801 2.35199,0.7201 4.464,0.72 5.37598,0.4801 8.73598,0.7201 10.08,0.72 1.43997,1e-4 2.25597,-0.0479 2.448,-0.144 0.19197,-0.1919 0.28797,-0.4319 0.288,-0.72 0.096,-0.2879 0.23997,-0.5279 0.432,-0.72 0.47997,1e-4 0.71997,0.8641 0.72,2.592 l 0,3.888 1.44,28.368 -0.432,0.144 c -0.096,7e-5 -0.33603,-0.19193 -0.72,-0.576 l 0,3.6 c 1.82397,-0.19194 4.51197,-0.71993 8.064,-1.584 3.55196,-0.86393 6.43196,-1.34393 8.64,-1.44 l 3.456,0.72 c 0.38395,0.0961 1.39195,0.19207 3.024,0.288 3.45594,0.19207 5.75994,0.76807 6.912,1.728 1.15194,0.86406 2.01594,1.92006 2.592,3.168 0.67194,1.24806 1.15194,2.40006 1.44,3.456 0.76794,2.20806 1.15194,5.90405 1.152,11.088 z"/>
      <path id="outer-a" d="m 366.62475,540.50908 0,-1.584 c -5e-5,-6.71996 -2.83204,-10.07995 -8.496,-10.08 -3.36003,5e-5 -6.00003,1.05605 -7.92,3.168 -1.82403,2.11204 -2.73603,4.99204 -2.736,8.64 -3e-5,6.24003 0.81597,10.94403 2.448,14.112 1.63197,3.16802 4.70397,4.84802 9.216,5.04 4.12796,-4.03198 6.57596,-9.88797 7.344,-17.568 0.096,-0.19196 0.14395,-0.76796 0.144,-1.728 z m 20.88,28.512 c 0.38393,3.264 0.57593,6.336 0.576,9.216 -7e-5,1.056 -0.52807,1.824 -1.584,2.304 -3.45606,-0.384 -7.20006,-0.576 -11.232,-0.576 -4.03205,0 -6.76805,0.192 -8.208,0.576 -0.67205,-0.864 -1.00805,-1.488 -1.008,-1.872 -5e-5,-0.48 0.096,-1.152 0.288,-2.016 0.19195,-0.864 0.28795,-1.488 0.288,-1.872 -1.15204,0.48 -2.59204,1.248 -4.32,2.304 -3.55204,2.4 -6.91203,3.6 -10.08,3.6 -8.06402,0 -13.96802,-3.312 -17.712,-9.936 -3.74401,-6.71999 -5.61601,-15.21598 -5.616,-25.488 -10e-6,-6.91196 0.67199,-12.81596 2.016,-17.712 l 2.016,-5.616 c 8.73598,-8.44794 15.07197,-12.67193 19.008,-12.672 l 1.584,-0.432 c 7.19996,0.19207 11.80796,1.48807 13.824,3.888 0.096,-0.0959 0.14395,-0.52793 0.144,-1.296 l 0,-1.584 c -5e-5,-0.28793 0.096,-0.91193 0.288,-1.872 4.03195,0.86407 10.22394,1.29607 18.576,1.296 0.0959,7e-5 0.19193,-0.0959 0.288,-0.288 0.0959,-0.28793 0.23993,-0.43193 0.432,-0.432 0.67193,7e-5 1.00793,1.44007 1.008,4.32 -7e-5,2.88006 -0.0481,5.56806 -0.144,8.064 -0.0961,2.40005 -0.24007,4.94405 -0.432,7.632 -0.19207,2.68805 -0.33607,5.42404 -0.432,8.208 l 0,2.88 -0.144,7.776 0,6.48 c -7e-5,5.76002 0.19193,10.75201 0.576,14.976 l 0,0.144 z"/>
      <path id="outer-crown" d="m 392.35524,479.79322 c -0.71781,-0.28947 -1.58988,-0.0752 -2.62886,0.62282 -0.96369,0.63852 -2.09787,1.17693 -3.3312,1.78366 -1.27693,0.52495 -5.31031,1.99529 -9.59318,3.44887 -2.02092,-4.12896 -3.66976,-6.90598 -4.81535,-8.7188 -0.12955,-0.13067 -0.28474,-0.50484 -0.59327,-0.64002 -0.31911,-0.19496 -0.44775,-0.42453 -0.55461,-0.76708 0.21436,-0.37026 0.22521,-0.65299 0.11166,-0.92853 -0.0495,-0.15835 -0.12894,-0.25699 -0.23751,-0.29849 l -0.0299,-0.009 c -0.11607,-0.025 -0.2439,0.008 -0.42168,0.10325 0,0 -1.53417,1.2185 -2.36464,1.71142 -1.02308,0.60725 -3.21249,1.49291 -3.21249,1.49291 l -2.91285,1.58164 c -1.3838,0.66664 -2.18962,1.36078 -2.96171,1.30645 l -0.52941,-0.74346 c -1.25013,-1.95002 -2.66607,-4.0783 -4.51613,-6.6501 0.28575,0.0357 0.47696,0.0919 0.56044,0.19854 -0.16672,-0.21435 -0.75057,-1.05574 -1.72698,-2.53221 -0.89307,-1.36936 -1.97216,-2.37183 -3.24624,-3.01477 -0.51709,4.13702 -0.95679,13.26218 -1.08374,15.32312 -0.12697,2.06094 -0.0594,3.02263 -0.47888,5.13805 -0.82164,4.14331 -1.283,6.22529 -0.26456,6.50521 0.37018,0.10234 0.78963,0.0532 1.24176,-0.12109 0.54472,-0.14894 0.90613,-0.21419 1.11858,-0.25535 l 3.98512,1.18034 14.5389,4.50176 c 2.59234,0.71244 6.3163,2.01484 11.37052,3.20483 1.81906,-4.07245 2.75146,-5.53662 4.53007,-9.02249 2.31605,-4.53921 5.24375,-9.74597 8.04622,-14.40166 z"/>
      <path id="outer-E" d="m 488.856,565.70908 -0.576,13.248 -0.864,1.008 -38.736,0.144 c -0.096,-0.096 -0.52803,-0.144 -1.296,-0.144 l -1.296,0 -8.064,0.576 c -6.24001,0 -9.36001,-0.528 -9.36,-1.584 0.096,-0.096 0.14399,-0.24 0.144,-0.432 -10e-6,-0.288 0.048,-0.48 0.144,-0.576 -0.19201,-1.344 -0.28801,-2.208 -0.288,-2.592 l 0.288,-5.184 0,-1.152 c -10e-6,-0.67199 -0.048,-1.05599 -0.144,-1.152 0.19199,-4.03199 0.28799,-6.95998 0.288,-8.784 l -1.152,-33.12 0.576,-27.792 c -10e-6,-6.62391 0.23999,-12.09591 0.72,-16.416 0.95999,-0.4799 2.11199,-0.7199 3.456,-0.72 10.27198,-0.1919 16.55997,-0.3359 18.864,-0.432 0.38397,0.2881 1.10397,0.4321 2.16,0.432 l 4.32,0 11.952,0.144 c 5.18394,10e-5 10.17594,-0.1439 14.976,-0.432 l 0.432,-0.288 c -0.76807,-0.4799 -1.68007,-0.7199 -2.736,-0.72 l -3.024,0.144 -0.72,0 0,-0.288 c 3.35994,10e-5 6.52793,-0.1919 9.504,-0.576 0.38393,0.0961 0.57593,0.3361 0.576,0.72 -7e-5,0.2881 -0.28807,0.7201 -0.864,1.296 0.28793,1.1521 0.43193,2.97609 0.432,5.472 l -0.144,8.064 0,1.728 c -7e-5,0.86408 0.0479,1.39208 0.144,1.584 -0.19207,1.34408 -0.28807,2.40008 -0.288,3.168 l 0,0.72 c -1.82407,0.28808 -7.82406,0.67207 -18,1.152 -0.67205,7e-5 -1.77605,-0.0959 -3.312,-0.288 l -16.56,0.432 -0.288,0.576 0.144,2.736 -0.432,9.504 c -3e-5,0.86406 0.096,2.16006 0.288,3.888 l 0.576,0.576 17.424,0.144 c 0.28795,0.57606 0.43195,1.96805 0.432,4.176 -5e-5,2.20805 -0.0481,5.13605 -0.144,8.784 -5e-5,3.55204 -5e-5,6.24004 0,8.064 -1.15205,-0.28796 -4.27205,-0.43196 -9.36,-0.432 -5.08804,4e-5 -7.63203,0.14404 -7.632,0.432 l -0.864,1.44 0,9.936 c -3e-5,2.88002 0.19197,4.94402 0.576,6.192 l -0.432,0.72 0.576,0.288 24.624,0.432 c 4.03194,2e-5 8.06393,-0.14398 12.096,-0.432 l 0.576,0.72 0.288,4.896 z"/>
      <path id="outer-d" d="m 532.15725,543.53308 c -5e-5,-0.28797 -5e-5,-1.34396 0,-3.168 -5e-5,-1.82396 -0.048,-3.50396 -0.144,-5.04 -0.096,-1.53596 -0.33605,-3.35995 -0.72,-5.472 -0.76804,-4.03195 -2.92804,-6.04795 -6.48,-6.048 -3.45604,5e-5 -6.81603,1.63205 -10.08,4.896 -3.26403,3.16805 -4.89602,7.58404 -4.896,13.248 -2e-5,5.66403 1.34397,10.56002 4.032,14.688 2.68797,4.12802 5.99997,6.19201 9.936,6.192 5.56796,10e-6 8.35195,-6.43198 8.352,-19.296 z m 13.68,36.576 -1.152,-0.144 -2.016,0 c -6e-5,0.384 -1.29606,0.624 -3.888,0.72 -2.49605,0.096 -3.93605,0.192 -4.32,0.288 -0.38405,0.096 -0.72005,0.192 -1.008,0.288 -0.28805,0.096 -0.52805,0.144 -0.72,0.144 -0.19205,0.096 -0.38405,0.144 -0.576,0.144 -0.096,0.096 -0.19205,0.144 -0.288,0.144 l -0.144,0 c -0.28805,0 -0.52805,-0.72 -0.72,-2.16 l -0.144,-4.752 c -5e-5,-0.768 0.048,-1.2 0.144,-1.296 -0.38404,0.384 -0.72004,1.152 -1.008,2.304 -0.28804,1.056 -0.86404,2.064 -1.728,3.024 -2.30404,1.824 -5.37604,2.736 -9.216,2.736 -3.84003,0 -7.05603,-0.288 -9.648,-0.864 -2.49602,-0.48 -3.74402,-1.056 -3.744,-1.728 -2e-5,-0.192 0.048,-0.336 0.144,-0.432 -4.03202,-2.496 -7.53601,-7.05599 -10.512,-13.68 -2.88001,-6.62398 -4.32001,-13.19997 -4.32,-19.728 -1e-5,-19.00795 4.22399,-30.81594 12.672,-35.424 0.28798,-0.28793 2.78398,-0.95993 7.488,-2.016 4.70397,-1.05593 7.87197,-1.58393 9.504,-1.584 1.63196,7e-5 5.23196,1.00807 10.8,3.024 -0.096,-0.0959 -0.14405,-0.33593 -0.144,-0.72 -5e-5,-0.38393 0.23995,-2.87993 0.72,-7.488 0.47995,-4.60792 0.71995,-8.63992 0.72,-12.096 -5e-5,-3.55191 -0.52805,-7.1999 -1.584,-10.944 l 3.6,-0.72 c 1.91995,10e-5 4.41595,0.2881 7.488,0.864 3.07194,0.4801 5.27994,0.7201 6.624,0.72 1.43994,1e-4 2.30393,-0.2399 2.592,-0.72 0.38393,-0.5759 0.76793,-0.8639 1.152,-0.864 -0.0961,4.5121 -0.14407,9.50409 -0.144,14.976 -7e-5,5.47208 -0.33607,15.12007 -1.008,28.944 -0.57607,13.72804 -0.86406,24.33603 -0.864,31.824 l 0,6.768 0.72,13.248 c -7e-5,2.496 -0.14407,4.896 -0.432,7.2 -0.48006,0 -1.10406,-0.24 -1.872,-0.72 -0.67206,-0.576 -1.39206,-0.864 -2.16,-0.864 -0.0961,0.096 -0.19206,0.384 -0.288,0.864 -6e-5,0.48 -0.24006,0.72 -0.72,0.72 z"/>
    </g>
    <g id="inner" style="fill:#fbd257">
      <path id="inner-N" d="m 248.08125,578.38108 2.88,-0.288 0.72,0 -0.144,-3.168 0.288,0 c -0.0961,-0.192 -0.14407,-0.912 -0.144,-2.16 l 0,-2.16 0.288,-13.248 -0.288,-59.76 c -7e-5,-2.78392 -0.0961,-6.86391 -0.288,-12.24 l -0.72,-1.296 0.72,-0.288 0,-0.576 c -7e-5,-0.95991 -0.19207,-1.7759 -0.576,-2.448 l -1.872,0.288 c -1.53606,-0.1919 -2.68806,-0.2879 -3.456,-0.288 l -3.168,0 -8.064,0.144 c -0.48005,5.66409 -0.72005,11.42408 -0.72,17.28 -5e-5,5.76007 0.0959,12.38407 0.288,19.872 l -0.864,1.152 c -0.28805,6e-5 -1.24805,-0.91194 -2.88,-2.736 -1.63204,-1.82394 -2.49604,-2.73594 -2.592,-2.736 l -1.584,-2.736 c -2.78404,-7.39193 -4.60804,-11.95192 -5.472,-13.68 -2.01603,-4.60792 -5.52003,-10.22391 -10.512,-16.848 l -2.16,-0.144 c -1.63202,1e-4 -3.84002,0.2881 -6.624,0.864 -2.68801,0.4801 -4.46401,0.7681 -5.328,0.864 l -0.864,27.648 -0.432,0.576 0.144,4.464 -0.432,16.848 c -10e-6,7.20004 0.14399,11.04003 0.432,11.52 0.096,2.30403 0.14399,7.77603 0.144,16.416 0.096,8.64001 0.33599,14.976 0.72,19.008 1.91999,0.384 4.36798,0.576 7.344,0.576 3.07198,0 5.90398,-0.288 8.496,-0.864 l -0.432,-1.296 c 0.19197,-0.288 0.33597,-0.432 0.432,-0.432 l 0.72,-4.176 c 0.38397,-2.39999 0.57597,-6.81599 0.576,-13.248 l -0.288,-22.464 -0.288,-0.432 c -3e-5,-3.16796 0.28797,-4.94395 0.864,-5.328 0.57597,-0.47995 1.10397,-0.71995 1.584,-0.72 l 0.576,0.144 c 0.28797,2.20804 1.39197,4.84804 3.312,7.92 2.01596,3.07204 3.16796,5.13603 3.456,6.192 0.28796,0.96003 0.57596,1.63203 0.864,2.016 0.38396,0.38403 0.57596,0.72003 0.576,1.008 -4e-5,0.19203 -0.048,0.33603 -0.144,0.432 l 0.72,1.872 c 0.38396,0.19203 0.57596,0.52803 0.576,1.008 l 10.656,27.216 7.776,0.432 c 1.34394,0 2.59194,-0.144 3.744,-0.432 0.28794,0.288 0.76794,0.432 1.44,0.432 z"/>
      <path id="inner-h" d="m 267.95325,503.93308 -1.296,44.064 c -10e-6,6.33602 0.14399,12.48002 0.432,18.432 0.38399,5.856 0.57599,8.832 0.576,8.928 1.43999,0.864 3.79198,1.296 7.056,1.296 3.35998,0 5.56798,-0.144 6.624,-0.432 -0.096,-0.864 -0.14402,-2.112 -0.144,-3.744 l 0,-3.888 c -2e-5,-4.70399 0.43197,-13.96798 1.296,-27.792 l 0,-2.304 c -3e-5,-2.01596 0.81597,-4.07996 2.448,-6.192 1.72797,-2.20795 3.45597,-3.31195 5.184,-3.312 1.72796,5e-5 3.21596,0.28805 4.464,0.864 1.24796,0.57605 2.20796,1.29605 2.88,2.16 0.67196,0.76804 1.19996,1.96804 1.584,3.6 0.57596,2.01604 1.05596,5.04004 1.44,9.072 1.34395,5.95203 2.01595,14.83202 2.016,26.64 l 0,3.312 c -5e-5,0.768 -0.0961,1.824 -0.288,3.168 2.11195,-0.288 4.27195,-0.432 6.48,-0.432 2.30395,0 4.94394,0.192 7.92,0.576 0.67194,-5.376 1.00794,-15.11999 1.008,-29.232 l 0,-10.08 c -6e-5,-1.63196 -0.19206,-3.50396 -0.576,-5.616 -0.28806,-2.11195 -0.52806,-4.12795 -0.72,-6.048 -0.0961,-2.01595 -0.28806,-3.31195 -0.576,-3.888 -0.19206,-0.67195 -0.48006,-1.24794 -0.864,-1.728 -0.38406,-0.57594 -0.86406,-1.15194 -1.44,-1.728 -0.48006,-0.67194 -1.34406,-1.77594 -2.592,-3.312 -1.24805,-1.63194 -2.59205,-2.83194 -4.032,-3.6 -1.34405,-0.76793 -3.16805,-1.15193 -5.472,-1.152 -2.20804,7e-5 -3.84004,0.0961 -4.896,0.288 -1.05604,0.0961 -2.16004,0.38406 -3.312,0.864 -1.15204,0.38406 -2.01603,0.67206 -2.592,0.864 -0.48003,0.19206 -1.48803,0.72006 -3.024,1.584 -1.44003,0.76806 -2.40003,1.24806 -2.88,1.44 -0.76803,-1.05594 -1.24803,-1.63194 -1.44,-1.728 0.28797,-2.01594 0.43197,-7.91993 0.432,-17.712 -3e-5,-9.88791 -0.096,-15.8879 -0.288,-18 -2.20802,1e-4 -4.94402,-0.1919 -8.208,-0.576 -3.26402,-0.4799 -5.42401,-0.7679 -6.48,-0.864 -1.24801,1e-4 -1.87201,1.9201 -1.872,5.76 l 0,1.872 1.152,18.576 z"/>
      <path id="inner-a" d="m 366.04875,555.48508 -0.864,3.6 0.144,0 0,-1.008 c -0.38404,0.19202 -1.20004,0.67202 -2.448,1.44 -2.20804,1.24802 -4.36804,1.87202 -6.48,1.872 -2.11203,2e-5 -4.70403,-1.58398 -7.776,-4.752 -2.97602,-3.16798 -4.46402,-6.67197 -4.464,-10.512 -2e-5,-3.93596 0.67198,-7.77596 2.016,-11.52 1.43997,-3.83995 3.16797,-6.19195 5.184,-7.056 2.11197,-0.86395 6.52796,-1.39195 13.248,-1.584 2.87995,1.34405 4.31995,4.80005 4.32,10.368 -5e-5,5.56804 -0.96005,11.95203 -2.88,19.152 z m 20.448,-18.432 -0.144,-11.232 0.576,-12.384 c -7e-5,-1.43993 -0.24007,-2.25593 -0.72,-2.448 -0.19207,7e-5 -0.28806,0.24007 -0.288,0.72 -6e-5,0.38407 -0.24006,0.57606 -0.72,0.576 -0.48006,6e-5 -1.39206,-0.28793 -2.736,-0.864 -1.24806,0.96006 -2.88006,1.44006 -4.896,1.44 -2.01605,6e-5 -4.46405,-0.52794 -7.344,-1.584 -0.096,0.28807 -0.24005,0.81607 -0.432,1.584 -0.38405,1.44006 -0.86405,2.44806 -1.44,3.024 -0.48005,-0.28794 -1.44005,-1.00794 -2.88,-2.16 -1.44004,-1.24794 -2.49604,-1.87193 -3.168,-1.872 l 0.144,-0.432 c -4e-5,-0.19193 -0.52804,-0.38393 -1.584,-0.576 -0.96004,-0.28793 -1.87204,-0.43193 -2.736,-0.432 -5.95203,7e-5 -9.50403,0.48007 -10.656,1.44 -1.15203,0.96006 -2.83202,2.25606 -5.04,3.888 -4.51202,3.36006 -7.34401,6.19206 -8.496,8.496 -1.63201,2.88005 -2.44801,7.53605 -2.448,13.968 -10e-6,6.43203 0.14399,11.18403 0.432,14.256 0.28799,2.97602 0.86399,6.28802 1.728,9.936 1.82399,7.39201 5.85598,11.952 12.096,13.68 0.28797,0 0.86397,0.192 1.728,0.576 0.86397,0.288 1.96797,0.432 3.312,0.432 1.34397,0 3.31197,-0.288 5.904,-0.864 2.59196,-0.672 4.07996,-1.248 4.464,-1.728 0.19196,0 0.28796,0.144 0.288,0.432 -4e-5,0.192 0.048,0.288 0.144,0.288 4.03196,-2.976 6.14395,-4.51199 6.336,-4.608 0.096,0.096 0.14395,0.57601 0.144,1.44 l -0.432,4.752 c -5e-5,1.152 0.76795,1.728 2.304,1.728 l 12.24,-0.864 c 1.43994,0 2.87994,0.144 4.32,0.432 -0.19207,-10.75199 -0.28807,-18.47998 -0.288,-23.184 l 0.288,-17.856 z"/>
      <path id="inner-crown" d="m 369.59347,476.86476 c 2.01544,3.20202 3.6346,5.819 4.8525,7.82526 0.0617,0.0824 0.11498,0.10497 0.17424,0.18197 0.79378,1.53611 1.14912,2.63893 2.39514,3.5775 l 0.31958,-0.19868 c 0.0273,-0.092 -0.0778,-0.28668 -0.3252,-0.5526 -0.2474,-0.26584 -0.10116,-0.31856 -0.0467,-0.5027 l 11.26102,-4.1282 0.0777,-0.0422 c -0.57896,1.43563 -1.88846,3.68751 -3.28857,6.26138 -0.72797,1.43165 -1.61064,2.97444 -2.42096,4.43247 -0.58296,1.04893 -1.09669,2.1204 -1.71696,3.32101 -0.73232,1.37187 -2.16777,3.93522 -2.18625,4.35532 -9.12207,-2.60452 -13.95651,-4.62035 -29.32305,-8.9458 l -0.01,-0.29629 c 0.23608,-3.42614 0.37051,-6.67826 0.6249,-9.59248 l 0.54064,-8.86783 c 0.13095,-1.04789 -0.0704,-1.64639 0.35824,-1.97978 1.36121,1.81588 2.681,3.6638 4.03329,5.52933 0.43127,1.09855 0.71998,2.04364 0.79706,2.81084 l 0.38066,0.14528 0.32512,-0.3274 c 0.17299,-0.0832 0.29728,-0.0274 0.38066,0.14529 l 0.27415,0.50489 c 0.4729,0.99634 1.43566,1.86719 2.06752,2.85242 0.78142,-0.95085 2.83828,-2.54146 6.81674,-4.45798 1.93973,-1.18543 2.51774,-1.38781 3.63856,-2.05113 z"/>
      <path id="inner-E" d="m 447.816,577.51708 1.44,0.288 c 2.49597,0 13.29596,-0.192 32.4,-0.576 l 4.176,-0.432 c 0.38393,-1.248 0.57593,-2.784 0.576,-4.608 -7e-5,-1.82399 -0.0961,-3.74399 -0.288,-5.76 -0.0961,-2.01599 -0.14407,-3.45599 -0.144,-4.32 -0.28807,0.28801 -0.62407,0.43201 -1.008,0.432 l -1.152,-0.144 c -0.48007,1e-5 -0.86406,0.19201 -1.152,0.576 -10.75205,-0.19199 -18.48005,-0.28799 -23.184,-0.288 l -8.928,0 c -0.96003,10e-6 -1.72803,-0.33599 -2.304,-1.008 l 0.144,-0.144 -0.864,-0.72 c -0.096,-0.19198 -0.14403,-0.91198 -0.144,-2.16 l 0,-8.208 -0.72,-5.616 c -3e-5,-2.49597 0.048,-3.88796 0.144,-4.176 0.19197,-0.28796 0.28797,-0.52796 0.288,-0.72 -3e-5,-0.19196 1.24797,-0.43196 3.744,-0.72 2.49596,-0.28796 5.27996,-0.52796 8.352,-0.72 3.16796,-0.19196 4.99195,-0.28796 5.472,-0.288 0.47995,-0.096 0.71995,4e-5 0.72,0.288 l 0.864,0 c -0.096,-0.096 -0.14405,-0.47996 -0.144,-1.152 l 0.288,-6.912 c -5e-5,-4.70395 -0.57605,-7.05595 -1.728,-7.056 -1.63205,0.28805 -3.26404,0.43205 -4.896,0.432 l -8.784,-0.576 c -0.96003,5e-5 -1.53603,0.28805 -1.728,0.864 -0.96003,5e-5 -1.53603,-0.62395 -1.728,-1.872 l -0.144,-1.584 c -3e-5,-0.57594 -0.19203,-1.00794 -0.576,-1.296 l 0.288,-4.752 -0.288,-10.8 c -3e-5,-0.95993 0.19197,-1.82392 0.576,-2.592 l 0.864,0 c 1.63197,8e-5 3.26397,-0.19192 4.896,-0.576 l 2.016,0 c 1.91996,8e-5 10.89595,-0.23992 26.928,-0.72 2.11193,-0.19192 3.45593,-0.38392 4.032,-0.576 l -0.288,-15.696 -0.288,-0.432 c -0.86407,0.28809 -1.82407,0.43209 -2.88,0.432 l -7.776,-0.432 -5.184,0.144 -10.944,-0.288 c -8.25603,9e-5 -17.47202,0.86409 -27.648,2.592 l -0.432,1.008 0.288,9.792 c -0.096,0.0961 -0.096,1.44008 0,4.032 0.19199,2.49607 0.28799,4.36807 0.288,5.616 l 0,8.064 c -10e-6,0.28806 0.14399,0.76806 0.432,1.44 0.38399,0.57606 0.57599,1.29606 0.576,2.16 -1e-5,0.76806 -0.048,1.48806 -0.144,2.16 l 0.576,5.904 c -1e-5,2.01605 -0.43201,4.75205 -1.296,8.208 l 0,6.768 c 0.096,1.34404 0.14399,2.68803 0.144,4.032 0.096,0.86403 0.19199,1.29603 0.288,1.296 0.19199,-0.096 0.33599,-0.096 0.432,0 0.096,-0.096 0.14399,-0.23997 0.144,-0.432 0.096,-0.19197 0.23999,-0.28797 0.432,-0.288 l 0.144,0 -0.144,-1.008 c -10e-6,-0.28797 0.14399,-0.52797 0.432,-0.72 0.28798,0.86403 0.43198,1.92003 0.432,3.168 -2e-5,1.24803 -0.14402,1.87203 -0.432,1.872 -0.28801,3e-5 -0.43201,-0.048 -0.432,-0.144 -10e-6,-0.096 -0.096,-0.14397 -0.288,-0.144 l -0.144,0.288 c 0.096,3e-5 0.14399,0.14403 0.144,0.432 -1e-5,0.19203 -0.14401,0.52803 -0.432,1.008 -0.19201,0.38403 -0.28801,0.62403 -0.288,0.72 l 0.432,-0.144 c 0.19199,0.38403 0.28799,1.00803 0.288,1.872 l 0,1.584 c -0.19201,0.96002 -0.62401,2.49602 -1.296,4.608 l 0,0.576 c -0.096,2e-5 -0.14401,0.048 -0.144,0.144 -1e-5,0.096 0.47999,1.00802 1.44,2.736 0.95998,1.63201 1.43998,2.83201 1.44,3.6 -2e-5,0.67201 -0.14402,1.00801 -0.432,1.008 -0.19202,10e-6 -0.33602,-0.048 -0.432,-0.144 0.096,0.096 0.14398,0.52801 0.144,1.296 l 0,1.296 c -0.38401,3.456 -0.57601,6.192 -0.576,8.208 0.67198,0.288 1.34398,0.432 2.016,0.432 l 4.608,-0.432 8.496,0 z"/>
      <path id="inner-d" d="m 533.45325,553.03708 -0.576,-0.432 c -0.19205,2e-5 -0.28805,0.048 -0.288,0.144 -0.38405,3.64802 -1.48805,6.81602 -3.312,9.504 -1.82404,2.68801 -4.12804,4.03201 -6.912,4.032 -2.68803,10e-6 -4.84803,-0.86399 -6.48,-2.592 -1.53603,-1.82398 -2.78403,-3.74398 -3.744,-5.76 -0.96003,-2.01598 -1.48802,-3.31198 -1.584,-3.888 -0.096,-0.57598 -0.19202,-1.29598 -0.288,-2.16 -2e-5,-0.86397 -0.048,-1.63197 -0.144,-2.304 -1.24802,-4.79997 -1.87202,-8.35196 -1.872,-10.656 -2e-5,-4.12796 1.48798,-7.77595 4.464,-10.944 2.97597,-3.16795 6.76797,-5.03995 11.376,-5.616 l 1.152,0 c 3.83996,5e-5 6.33595,1.20005 7.488,3.6 1.24795,2.30405 1.87195,7.39204 1.872,15.264 -5e-5,7.87203 -0.38405,11.80802 -1.152,11.808 z m -1.296,-42.192 -2.736,0.432 c -0.96004,7e-5 -2.35204,-0.33593 -4.176,-1.008 -1.72804,-0.67193 -3.21604,-1.00793 -4.464,-1.008 -1.15203,7e-5 -3.60003,0.43207 -7.344,1.296 -0.67203,-0.38393 -1.39203,-0.57593 -2.16,-0.576 -4.80002,7e-5 -8.92802,2.97606 -12.384,8.928 -3.36001,5.85605 -5.04001,13.10405 -5.04,21.744 -10e-6,3.36003 0.52799,6.86403 1.584,10.512 1.15199,3.55202 1.87199,5.85602 2.16,6.912 1.63199,6.62401 3.64798,11.32801 6.048,14.112 2.49598,2.688 6.71998,4.032 12.672,4.032 3.07197,0 5.75996,-0.768 8.064,-2.304 2.39996,-1.536 4.07996,-2.44799 5.04,-2.736 0.57596,-1.15199 1.10396,-1.72799 1.584,-1.728 0.76795,0.28801 1.15195,0.72001 1.152,1.296 -5e-5,0.57601 -0.14405,1.05601 -0.432,1.44 0.67195,0.768 1.00795,2.448 1.008,5.04 1.72795,0.48 3.35995,0.72 4.896,0.72 1.53595,0 5.56794,-0.24 12.096,-0.72 -0.0961,-1.824 -0.14406,-4.512 -0.144,-8.064 l 0,-8.064 1.296,-80.784 -9.216,-1.296 -1.728,0.144 -0.144,0 c -0.96005,1e-4 -2.01605,0.2881 -3.168,0.864 -1.15205,0.5761 -1.87205,1.5841 -2.16,3.024 -0.19205,1.44009 -0.52805,9.45608 -1.008,24.048 l 0.144,2.88 c -5e-5,0.19207 -0.048,0.48007 -0.144,0.864 -5e-5,0.38407 -5e-5,0.62407 0,0.72 -0.48005,-0.47993 -0.91205,-0.71993 -1.296,-0.72 z"/>
    </g>
  </g>
</svg>
